<svg width="2560" height="2560" viewBox="0 0 2560 2560" fill="none" xmlns="http://www.w3.org/2000/svg">
<rect width="2560" height="2560" rx="550" fill="#0E1D1F"/>
<path fill-rule="evenodd" clip-rule="evenodd" d="M1385.77 836C1811.42 836 1920.77 950.134 1920.77 1396C1920.77 1841.87 1811.42 1956 1385.77 1956V836ZM1650.69 1310C1571.08 1310 1550.77 1348.85 1550.77 1500.12C1550.77 1651.4 1571.2 1690 1650.82 1690C1730.44 1690 1750.77 1651.28 1750.77 1500C1750.77 1348.72 1730.31 1310 1650.69 1310Z" fill="#10B981"/>
<path fill-rule="evenodd" clip-rule="evenodd" d="M1385.77 1956H998.911C791.716 1956 688.118 1956 628.544 1889.92C568.97 1823.85 579.662 1720.8 601.047 1514.72L606.214 1464.92C609.76 1430.75 611.533 1413.66 610.416 1396.73C609.718 1386.14 608.18 1375.64 605.815 1365.3C602.031 1348.76 595.433 1332.89 582.237 1301.17C512.225 1132.83 477.22 1048.67 496.042 981.806C507.478 941.182 531.471 905.216 564.589 879.057C619.097 836 710.252 836 892.562 836H1385.77V1956ZM1242.7 1310C1163.08 1310 1142.77 1348.85 1142.77 1500.12C1142.77 1651.4 1163.2 1690 1242.82 1690C1322.44 1690 1342.77 1651.28 1342.77 1500C1342.77 1348.72 1322.31 1310 1242.7 1310Z" fill="#10B981"/>
<path d="M1992.49 1013.09C1981.64 1053.56 2026.87 1087.16 2054.87 1059.43L2249.46 866.653C2271.87 844.456 2260.57 801.794 2230.13 793.638L2096.77 757.904C2077.73 752.801 2059.15 764.312 2053.72 784.577L1992.49 1013.09Z" fill="#10B981"/>
<path d="M2189.75 659.496C2200.59 619.022 2155.36 585.421 2127.37 613.154L1932.78 805.93C1910.37 828.127 1921.66 870.789 1952.1 878.945L2085.47 914.68C2104.51 919.782 2123.09 908.271 2128.52 888.006L2189.75 659.496Z" fill="#10B981"/>
</svg>
