<svg width="2560" height="2560" viewBox="0 0 2560 2560" fill="none" xmlns="http://www.w3.org/2000/svg">
<rect width="2560" height="2560" rx="550" fill="#10B981"/>
<path fill-rule="evenodd" clip-rule="evenodd" d="M1369.77 836C1795.42 836 1904.77 950.134 1904.77 1396C1904.77 1841.87 1795.42 1956 1369.77 1956V836ZM1634.69 1310C1555.08 1310 1534.77 1348.85 1534.77 1500.12C1534.77 1651.4 1555.2 1690 1634.82 1690C1714.44 1690 1734.77 1651.28 1734.77 1500C1734.77 1348.72 1714.31 1310 1634.69 1310Z" fill="#0E1D1F"/>
<path fill-rule="evenodd" clip-rule="evenodd" d="M1369.77 1956H982.911C775.716 1956 672.118 1956 612.544 1889.92C552.97 1823.85 563.662 1720.8 585.047 1514.72L590.214 1464.92C593.76 1430.75 595.533 1413.66 594.416 1396.73C593.718 1386.14 592.18 1375.64 589.815 1365.3C586.031 1348.76 579.433 1332.89 566.237 1301.17C496.225 1132.83 461.22 1048.67 480.042 981.806C491.478 941.182 515.471 905.216 548.589 879.057C603.097 836 694.252 836 876.562 836H1369.77V1956ZM1226.7 1310C1147.08 1310 1126.77 1348.85 1126.77 1500.12C1126.77 1651.4 1147.2 1690 1226.82 1690C1306.44 1690 1326.77 1651.28 1326.77 1500C1326.77 1348.72 1306.31 1310 1226.7 1310Z" fill="#0E1D1F"/>
<path d="M1976.26 1013.09C1965.41 1053.56 2010.64 1087.16 2038.63 1059.43L2233.23 866.653C2255.63 844.456 2244.34 801.794 2213.9 793.638L2080.54 757.904C2061.49 752.801 2042.91 764.312 2037.48 784.577L1976.26 1013.09Z" fill="#0E1D1F"/>
<path d="M2173.51 659.496C2184.36 619.022 2139.13 585.421 2111.13 613.154L1916.54 805.93C1894.14 828.127 1905.43 870.789 1935.87 878.945L2069.23 914.68C2088.27 919.782 2106.85 908.271 2112.28 888.006L2173.51 659.496Z" fill="#0E1D1F"/>
</svg>
