<svg width="2560" height="2560" viewBox="0 0 2560 2560" fill="none" xmlns="http://www.w3.org/2000/svg">
<path fill-rule="evenodd" clip-rule="evenodd" d="M1291.87 709C1839.36 709 1980 855.846 1980 1429.5C1980 2003.15 1839.36 2150 1291.87 2150V709ZM1632.63 1318.85C1530.22 1318.85 1504.1 1368.84 1504.1 1563.47C1504.1 1758.1 1530.39 1807.76 1632.79 1807.76C1735.2 1807.76 1761.34 1757.94 1761.34 1563.31C1761.34 1368.67 1735.04 1318.85 1632.63 1318.85Z" fill="#0E1D1F"/>
<path fill-rule="evenodd" clip-rule="evenodd" d="M1291.87 2150H794.287C527.788 2150 394.538 2150 317.912 2064.99C241.287 1979.97 255.039 1847.4 282.545 1582.24L289.191 1518.18C293.752 1474.21 296.033 1452.22 294.595 1430.43C293.697 1416.82 291.719 1403.3 288.678 1390C283.811 1368.72 275.324 1348.31 258.351 1307.49C168.3 1090.91 123.275 982.622 147.485 896.595C162.194 844.327 193.055 798.054 235.651 764.397C305.761 709 423.007 709 657.499 709H1291.87V2150ZM1107.85 1318.85C1005.44 1318.85 979.318 1368.84 979.318 1563.47C979.318 1758.1 1005.61 1807.76 1108.01 1807.76C1210.42 1807.76 1236.56 1757.94 1236.56 1563.31C1236.56 1368.67 1210.26 1318.85 1107.85 1318.85Z" fill="#0E1D1F"/>
<path d="M2072.03 937.349C2058.07 989.396 2116.3 1032.61 2152.33 996.942L2402.84 749.044C2431.69 720.499 2417.15 665.639 2377.96 655.15L2206.28 609.197C2181.76 602.636 2157.84 617.438 2150.85 643.498L2072.03 937.349Z" fill="#0E1D1F"/>
<path d="M2325.97 482.651C2339.93 430.604 2281.7 387.394 2245.67 423.058L1995.16 670.956C1966.31 699.501 1980.85 754.361 2020.04 764.85L2191.72 810.803C2216.24 817.364 2240.16 802.562 2247.15 776.502L2325.97 482.651Z" fill="#0E1D1F"/>
</svg>
